<svg width="56" height="56" viewBox="0 0 56 56" fill="none" xmlns="http://www.w3.org/2000/svg">
<rect width="56" height="56" rx="4" fill="white" fill-opacity="0.9"/>
<path d="M44 12V24C44 26.2053 42.2053 28 40 28H38.6667V44H36V28H34.6667C32.4613 28 30.6667 26.2053 30.6667 24V12H33.3333V24C33.3333 24.7347 33.932 25.3333 34.6667 25.3333H36V12H38.6667V25.3333H40C40.7347 25.3333 41.3333 24.7347 41.3333 24V12H44ZM28 24V20C23.588 20 20 23.588 20 28C20 32.412 23.588 36 28 36C30.0507 36 31.916 35.2187 33.3333 33.9467V30.532C30.2947 29.912 28 27.22 28 24ZM17.3333 28C17.3333 22.1187 22.1187 17.3333 28 17.3333V12C19.164 12 12 19.164 12 28C12 36.836 19.164 44 28 44C29.8733 44 31.6627 43.6613 33.3333 43.0707V37.224C31.7627 38.136 29.944 38.6667 28 38.6667C22.1187 38.6667 17.3333 33.8813 17.3333 28Z" fill="#35404E"/>
</svg>
