<svg width="25" height="24" viewBox="0 0 25 24" fill="none" xmlns="http://www.w3.org/2000/svg">
<path d="M15.2653 11.85L8.0325 4.61725C7.8505 4.43525 7.75792 4.21125 7.75475 3.94525C7.75158 3.67925 7.841 3.45517 8.023 3.273C8.205 3.091 8.429 3 8.695 3C8.961 3 9.18508 3.091 9.36725 3.273L16.823 10.7193C16.987 10.8834 17.1043 11.061 17.1748 11.252C17.2454 11.443 17.2808 11.6423 17.2808 11.85C17.2808 12.0577 17.2454 12.257 17.1748 12.448C17.1043 12.639 16.987 12.8166 16.823 12.9807L9.37675 20.427C9.19475 20.609 8.96917 20.7016 8.7 20.7047C8.43067 20.7079 8.205 20.6185 8.023 20.4365C7.841 20.2545 7.75 20.0305 7.75 19.7645C7.75 19.4985 7.841 19.2744 8.023 19.0922L15.2653 11.85Z" fill="#342430"/>
</svg>
