<svg width="25" height="24" viewBox="0 0 25 24" fill="none" xmlns="http://www.w3.org/2000/svg">
<path d="M10.4847 11.85L17.7175 4.61725C17.8995 4.43525 17.9921 4.21125 17.9952 3.94525C17.9984 3.67925 17.909 3.45517 17.727 3.273C17.545 3.091 17.321 3 17.055 3C16.789 3 16.5649 3.091 16.3827 3.273L8.927 10.7193C8.763 10.8834 8.64575 11.061 8.57525 11.252C8.50458 11.443 8.46925 11.6423 8.46925 11.85C8.46925 12.0577 8.50458 12.257 8.57525 12.448C8.64575 12.639 8.763 12.8166 8.927 12.9807L16.3732 20.427C16.5552 20.609 16.7808 20.7016 17.05 20.7047C17.3193 20.7079 17.545 20.6185 17.727 20.4365C17.909 20.2545 18 20.0305 18 19.7645C18 19.4985 17.909 19.2744 17.727 19.0922L10.4847 11.85Z" fill="#342430"/>
</svg>
