<svg width="20" height="21" viewBox="0 0 20 21" fill="none" xmlns="http://www.w3.org/2000/svg">
<path d="M8.10417 12.5981L14.3333 6.36891C14.4849 6.21614 14.6616 6.13975 14.8635 6.13975C15.0656 6.13975 15.2431 6.21614 15.3958 6.36891C15.5486 6.52169 15.625 6.69933 15.625 6.90183C15.625 7.10433 15.5513 7.27926 15.404 7.42662L8.64583 14.2022C8.49431 14.355 8.31757 14.4314 8.11562 14.4314C7.91354 14.4314 7.73611 14.355 7.58333 14.2022L4.60417 11.2231C4.45139 11.0703 4.375 10.8932 4.375 10.6918C4.375 10.4904 4.45139 10.3134 4.60417 10.1606C4.75694 10.0078 4.93521 9.93141 5.13896 9.93141C5.34257 9.93141 5.51847 10.0078 5.66667 10.1606L8.10417 12.5981Z" fill="#FF4667"/>
</svg>
