<svg width="14" height="14" viewBox="0 0 14 14" fill="none" xmlns="http://www.w3.org/2000/svg">
<path d="M10.3131 12.0031C10.1504 10.6862 9.02762 9.66667 7.66667 9.66667H6.33333C4.97238 9.66667 3.84955 10.6862 3.68691 12.0031M10.3131 12.0031C11.9324 10.9286 13 9.089 13 7C13 3.68629 10.3137 1 7 1C3.68629 1 1 3.68629 1 7C1 9.089 2.06758 10.9286 3.68691 12.0031M10.3131 12.0031C9.36372 12.6331 8.22471 13 7 13C5.77529 13 4.63628 12.6331 3.68691 12.0031M9 5.66667C9 6.77124 8.10457 7.66667 7 7.66667C5.89543 7.66667 5 6.77124 5 5.66667C5 4.5621 5.89543 3.66667 7 3.66667C8.10457 3.66667 9 4.5621 9 5.66667Z" stroke="#818181" stroke-width="1.5" stroke-linecap="round" stroke-linejoin="round"/>
</svg>
