<svg width="68" height="13" viewBox="0 0 68 13" fill="none" xmlns="http://www.w3.org/2000/svg">
<path d="M5.74758 0.678571C5.86566 0.494742 6.13434 0.494742 6.25242 0.678571L7.98232 3.37186C8.02295 3.43511 8.08584 3.4808 8.15855 3.49989L11.2546 4.31286C11.4659 4.36835 11.5489 4.62388 11.4106 4.79298L9.38369 7.27049C9.33609 7.32868 9.31207 7.40261 9.31638 7.47766L9.49993 10.6734C9.51246 10.8915 9.29509 11.0494 9.09151 10.9701L6.10891 9.80802C6.03887 9.78073 5.96113 9.78073 5.89109 9.80802L2.90849 10.9701C2.70491 11.0494 2.48754 10.8915 2.50007 10.6734L2.68362 7.47766C2.68793 7.40261 2.66391 7.32868 2.61631 7.27049L0.589413 4.79298C0.451068 4.62388 0.534097 4.36835 0.745415 4.31286L3.84145 3.49989C3.91416 3.4808 3.97705 3.43511 4.01768 3.37186L5.74758 0.678571Z" fill="#342430"/>
<path d="M19.7476 0.678571C19.8657 0.494742 20.1343 0.494742 20.2524 0.678571L21.9823 3.37186C22.0229 3.43511 22.0858 3.4808 22.1585 3.49989L25.2546 4.31286C25.4659 4.36835 25.5489 4.62388 25.4106 4.79298L23.3837 7.27049C23.3361 7.32868 23.3121 7.40261 23.3164 7.47766L23.4999 10.6734C23.5125 10.8915 23.2951 11.0494 23.0915 10.9701L20.1089 9.80802C20.0389 9.78073 19.9611 9.78073 19.8911 9.80802L16.9085 10.9701C16.7049 11.0494 16.4875 10.8915 16.5001 10.6734L16.6836 7.47766C16.6879 7.40261 16.6639 7.32868 16.6163 7.27049L14.5894 4.79298C14.4511 4.62388 14.5341 4.36835 14.7454 4.31286L17.8415 3.49989C17.9142 3.4808 17.9771 3.43511 18.0177 3.37186L19.7476 0.678571Z" fill="#342430"/>
<path d="M33.7476 0.678571C33.8657 0.494742 34.1343 0.494742 34.2524 0.678571L35.9823 3.37186C36.0229 3.43511 36.0858 3.4808 36.1585 3.49989L39.2546 4.31286C39.4659 4.36835 39.5489 4.62388 39.4106 4.79298L37.3837 7.27049C37.3361 7.32868 37.3121 7.40261 37.3164 7.47766L37.4999 10.6734C37.5125 10.8915 37.2951 11.0494 37.0915 10.9701L34.1089 9.80802C34.0389 9.78073 33.9611 9.78073 33.8911 9.80802L30.9085 10.9701C30.7049 11.0494 30.4875 10.8915 30.5001 10.6734L30.6836 7.47766C30.6879 7.40261 30.6639 7.32868 30.6163 7.27049L28.5894 4.79298C28.4511 4.62388 28.5341 4.36835 28.7454 4.31286L31.8415 3.49989C31.9142 3.4808 31.9771 3.43511 32.0177 3.37186L33.7476 0.678571Z" fill="#342430"/>
<path d="M47.7476 0.678571C47.8657 0.494742 48.1343 0.494742 48.2524 0.678571L49.9823 3.37186C50.0229 3.43511 50.0858 3.4808 50.1585 3.49989L53.2546 4.31286C53.4659 4.36835 53.5489 4.62388 53.4106 4.79298L51.3837 7.27049C51.3361 7.32868 51.3121 7.40261 51.3164 7.47766L51.4999 10.6734C51.5125 10.8915 51.2951 11.0494 51.0915 10.9701L48.1089 9.80802C48.0389 9.78073 47.9611 9.78073 47.8911 9.80802L44.9085 10.9701C44.7049 11.0494 44.4875 10.8915 44.5001 10.6734L44.6836 7.47766C44.6879 7.40261 44.6639 7.32868 44.6163 7.27049L42.5894 4.79298C42.4511 4.62388 42.5341 4.36835 42.7454 4.31286L45.8415 3.49989C45.9142 3.4808 45.9771 3.43511 46.0177 3.37186L47.7476 0.678571Z" fill="#342430"/>
<path d="M61.7476 0.678571C61.8657 0.494742 62.1343 0.494742 62.2524 0.678571L63.9823 3.37186C64.0229 3.43511 64.0858 3.4808 64.1585 3.49989L67.2546 4.31286C67.4659 4.36835 67.5489 4.62388 67.4106 4.79298L65.3837 7.27049C65.3361 7.32868 65.3121 7.40261 65.3164 7.47766L65.4999 10.6734C65.5125 10.8915 65.2951 11.0494 65.0915 10.9701L62.1089 9.80802C62.0389 9.78073 61.9611 9.78073 61.8911 9.80802L58.9085 10.9701C58.7049 11.0494 58.4875 10.8915 58.5001 10.6734L58.6836 7.47766C58.6879 7.40261 58.6639 7.32868 58.6163 7.27049L56.5894 4.79298C56.4511 4.62388 56.5341 4.36835 56.7454 4.31286L59.8415 3.49989C59.9142 3.4808 59.9771 3.43511 60.0177 3.37186L61.7476 0.678571Z" fill="#342430"/>
</svg>
