<svg width="24" height="24" viewBox="0 0 24 24" fill="none" xmlns="http://www.w3.org/2000/svg">
<path d="M9 18C9.28333 18 9.52083 17.9042 9.7125 17.7125C9.90417 17.5208 10 17.2833 10 17C10 16.7167 9.90417 16.4792 9.7125 16.2875C9.52083 16.0958 9.28333 16 9 16C8.71667 16 8.47917 16.0958 8.2875 16.2875C8.09583 16.4792 8 16.7167 8 17C8 17.2833 8.09583 17.5208 8.2875 17.7125C8.47917 17.9042 8.71667 18 9 18ZM12 18C12.2833 18 12.5208 17.9042 12.7125 17.7125C12.9042 17.5208 13 17.2833 13 17C13 16.7167 12.9042 16.4792 12.7125 16.2875C12.5208 16.0958 12.2833 16 12 16C11.7167 16 11.4792 16.0958 11.2875 16.2875C11.0958 16.4792 11 16.7167 11 17C11 17.2833 11.0958 17.5208 11.2875 17.7125C11.4792 17.9042 11.7167 18 12 18ZM15 18C15.2833 18 15.5208 17.9042 15.7125 17.7125C15.9042 17.5208 16 17.2833 16 17C16 16.7167 15.9042 16.4792 15.7125 16.2875C15.5208 16.0958 15.2833 16 15 16C14.7167 16 14.4792 16.0958 14.2875 16.2875C14.0958 16.4792 14 16.7167 14 17C14 17.2833 14.0958 17.5208 14.2875 17.7125C14.4792 17.9042 14.7167 18 15 18ZM9 15C9.28333 15 9.52083 14.9042 9.7125 14.7125C9.90417 14.5208 10 14.2833 10 14C10 13.7167 9.90417 13.4792 9.7125 13.2875C9.52083 13.0958 9.28333 13 9 13C8.71667 13 8.47917 13.0958 8.2875 13.2875C8.09583 13.4792 8 13.7167 8 14C8 14.2833 8.09583 14.5208 8.2875 14.7125C8.47917 14.9042 8.71667 15 9 15ZM12 15C12.2833 15 12.5208 14.9042 12.7125 14.7125C12.9042 14.5208 13 14.2833 13 14C13 13.7167 12.9042 13.4792 12.7125 13.2875C12.5208 13.0958 12.2833 13 12 13C11.7167 13 11.4792 13.0958 11.2875 13.2875C11.0958 13.4792 11 13.7167 11 14C11 14.2833 11.0958 14.5208 11.2875 14.7125C11.4792 14.9042 11.7167 15 12 15ZM15 15C15.2833 15 15.5208 14.9042 15.7125 14.7125C15.9042 14.5208 16 14.2833 16 14C16 13.7167 15.9042 13.4792 15.7125 13.2875C15.5208 13.0958 15.2833 13 15 13C14.7167 13 14.4792 13.0958 14.2875 13.2875C14.0958 13.4792 14 13.7167 14 14C14 14.2833 14.0958 14.5208 14.2875 14.7125C14.4792 14.9042 14.7167 15 15 15ZM12 6C10.6167 6 9.4375 6.4875 8.4625 7.4625C7.4875 8.4375 7 9.61667 7 11C7 11.2833 7.09583 11.5208 7.2875 11.7125C7.47917 11.9042 7.71667 12 8 12H16C16.2833 12 16.5208 11.9042 16.7125 11.7125C16.9042 11.5208 17 11.2833 17 11C17 9.61667 16.5125 8.4375 15.5375 7.4625C14.5625 6.4875 13.3833 6 12 6ZM4 22C3.45 22 2.97917 21.8042 2.5875 21.4125C2.19583 21.0208 2 20.55 2 20V4C2 3.45 2.19583 2.97917 2.5875 2.5875C2.97917 2.19583 3.45 2 4 2H20C20.55 2 21.0208 2.19583 21.4125 2.5875C21.8042 2.97917 22 3.45 22 4V20C22 20.55 21.8042 21.0208 21.4125 21.4125C21.0208 21.8042 20.55 22 20 22H4Z" fill="#342430"/>
</svg>
