<svg width="18" height="16" viewBox="0 0 18 16" fill="none" xmlns="http://www.w3.org/2000/svg">
<path d="M5.6802 11.5126V14.9555H9.1231V11.5126C9.1231 11.0372 8.73774 10.6518 8.26238 10.6518H6.54093C6.06556 10.6518 5.6802 11.0372 5.6802 11.5126Z" fill="#CA650D"/>
<path d="M12.849 6.02589L7.97349 1.69214C7.64737 1.40226 7.15593 1.40226 6.82982 1.69214L1.95435 6.02589C1.58684 6.35256 1.37657 6.82081 1.37657 7.31252V13.234C1.37657 14.1847 2.14729 14.9555 3.09802 14.9555H5.6802M5.6802 14.9555V11.5126C5.6802 11.0372 6.06556 10.6518 6.54093 10.6518H8.26238C8.73774 10.6518 9.1231 11.0372 9.1231 11.5126V14.9555M5.6802 14.9555H9.1231M9.1231 14.9555H11.7053M11.6619 11.8792H17.3766L15.2985 13.6867M17.3766 10.2047L11.6619 10.2047L13.7399 8.39717" stroke="#CA650D" stroke-width="1.20502" stroke-linecap="round" stroke-linejoin="round"/>
</svg>
