<svg width="18" height="19" viewBox="0 0 18 19" fill="none" xmlns="http://www.w3.org/2000/svg">
<g id="Frame">
<path id="Vector" d="M7.16244 11.8266L13.6413 5.34768C13.7528 5.23605 13.8833 5.17905 14.0328 5.17668C14.1823 5.1743 14.3153 5.2313 14.4316 5.34768C14.548 5.46405 14.6062 5.59768 14.6062 5.74855C14.6062 5.89955 14.548 6.03324 14.4316 6.14961L7.63701 12.9559C7.50138 13.0914 7.34319 13.1591 7.16244 13.1591C6.98169 13.1591 6.82351 13.0914 6.68788 12.9559L3.55663 9.82461C3.44513 9.71299 3.39013 9.58049 3.39163 9.42711C3.39301 9.27386 3.45188 9.13905 3.56826 9.02268C3.68463 8.9063 3.81826 8.84811 3.96913 8.84811C4.12013 8.84811 4.25382 8.9063 4.37019 9.02268L7.16244 11.8266Z" fill="#342430"/>
</g>
</svg>
