<svg width="32" height="32" viewBox="0 0 32 32" fill="none" xmlns="http://www.w3.org/2000/svg">
<path d="M8.05198 23.3337L4.36465 27.0207C4.16821 27.2174 3.94732 27.2666 3.70198 27.1684C3.45665 27.07 3.33398 26.8823 3.33398 26.6054V5.74407C3.33398 5.07052 3.56732 4.50041 4.03398 4.03374C4.50065 3.56707 5.07076 3.33374 5.74432 3.33374H26.257C26.9305 3.33374 27.5007 3.56707 27.9673 4.03374C28.434 4.50041 28.6673 5.07052 28.6673 5.74407V20.9234C28.6673 21.597 28.434 22.1671 27.9673 22.6337C27.5007 23.1004 26.9305 23.3337 26.257 23.3337H8.05198ZM16.0007 16.4287L18.38 17.8721C18.5989 18.0105 18.8178 18.0029 19.0367 17.8491C19.2553 17.6953 19.3357 17.4867 19.2777 17.2234L18.6493 14.5157L20.7623 12.6901C20.9674 12.5072 21.0298 12.2919 20.9493 12.0441C20.8691 11.7961 20.6904 11.661 20.4133 11.6387L17.639 11.4054L16.5493 8.85174C16.4469 8.61063 16.264 8.49007 16.0007 8.49007C15.7373 8.49007 15.5544 8.61063 15.452 8.85174L14.3623 11.4054L11.588 11.6387C11.3109 11.661 11.1322 11.7961 11.052 12.0441C10.9715 12.2919 11.0339 12.5072 11.239 12.6901L13.352 14.5157L12.7237 17.2234C12.6657 17.4867 12.746 17.6953 12.9647 17.8491C13.1835 18.0029 13.4024 18.0105 13.6213 17.8721L16.0007 16.4287Z" fill="#342430"/>
</svg>
