<svg width="32" height="32" viewBox="0 0 32 32" fill="none" xmlns="http://www.w3.org/2000/svg">
<path d="M15.9997 28.6666C14.263 28.6666 12.6241 28.3337 11.083 27.6679C9.5419 27.0021 8.1979 26.0957 7.05101 24.9486C5.9039 23.8017 4.99745 22.4577 4.33167 20.9166C3.6659 19.3755 3.33301 17.7366 3.33301 15.9999C3.33301 14.2495 3.6659 12.6071 4.33167 11.0729C4.99745 9.5387 5.9039 8.19814 7.05101 7.05125C8.1979 5.90414 9.5419 4.9977 11.083 4.33192C12.6241 3.66614 14.263 3.33325 15.9997 3.33325C17.7501 3.33325 19.3925 3.66614 20.9267 4.33192C22.4609 4.9977 23.8015 5.90414 24.9483 7.05125C26.0955 8.19814 27.0019 9.5387 27.6677 11.0729C28.3335 12.6071 28.6663 14.2495 28.6663 15.9999C28.6663 17.7366 28.3335 19.3755 27.6677 20.9166C27.0019 22.4577 26.0955 23.8017 24.9483 24.9486C23.8015 26.0957 22.4609 27.0021 20.9267 27.6679C19.3925 28.3337 17.7501 28.6666 15.9997 28.6666ZM15.9997 26.6383C16.6801 25.7358 17.2528 24.8256 17.7177 23.9076C18.1826 22.9896 18.5612 21.9861 18.8537 20.8973H13.1457C13.4552 22.0204 13.8382 23.0409 14.2947 23.9589C14.7509 24.8769 15.3192 25.77 15.9997 26.6383ZM13.4177 26.2716C12.9066 25.5383 12.4476 24.7046 12.0407 23.7706C11.6338 22.8364 11.3176 21.8786 11.092 20.8973H6.56901C7.27323 22.2819 8.21767 23.4453 9.40234 24.3873C10.587 25.329 11.9255 25.9571 13.4177 26.2716ZM18.5817 26.2716C20.0739 25.9571 21.4123 25.329 22.597 24.3873C23.7817 23.4453 24.7261 22.2819 25.4303 20.8973H20.9073C20.6389 21.887 20.3012 22.849 19.8943 23.7833C19.4877 24.7175 19.0501 25.5469 18.5817 26.2716ZM5.73034 18.8973H10.687C10.6032 18.4017 10.5425 17.9158 10.5047 17.4396C10.4671 16.9636 10.4483 16.4837 10.4483 15.9999C10.4483 15.5161 10.4671 15.0363 10.5047 14.5603C10.5425 14.084 10.6032 13.5981 10.687 13.1026H5.73034C5.60212 13.5555 5.5039 14.0264 5.43567 14.5153C5.36723 15.0041 5.33301 15.499 5.33301 15.9999C5.33301 16.5008 5.36723 16.9957 5.43567 17.4846C5.5039 17.9735 5.60212 18.4444 5.73034 18.8973ZM12.6867 18.8973H19.3127C19.3962 18.4017 19.4569 17.9201 19.4947 17.4526C19.5322 16.985 19.551 16.5008 19.551 15.9999C19.551 15.499 19.5322 15.0148 19.4947 14.5473C19.4569 14.0797 19.3962 13.5981 19.3127 13.1026H12.6867C12.6031 13.5981 12.5425 14.0797 12.5047 14.5473C12.4671 15.0148 12.4483 15.499 12.4483 15.9999C12.4483 16.5008 12.4671 16.985 12.5047 17.4526C12.5425 17.9201 12.6031 18.4017 12.6867 18.8973ZM21.3123 18.8973H26.269C26.3972 18.4444 26.4955 17.9735 26.5637 17.4846C26.6321 16.9957 26.6663 16.5008 26.6663 15.9999C26.6663 15.499 26.6321 15.0041 26.5637 14.5153C26.4955 14.0264 26.3972 13.5555 26.269 13.1026H21.3123C21.3961 13.5981 21.4569 14.084 21.4947 14.5603C21.5322 15.0363 21.551 15.5161 21.551 15.9999C21.551 16.4837 21.5322 16.9636 21.4947 17.4396C21.4569 17.9158 21.3961 18.4017 21.3123 18.8973ZM20.9073 11.1026H25.4303C24.7177 9.70081 23.7797 8.53747 22.6163 7.61259C21.453 6.68792 20.1081 6.05548 18.5817 5.71525C19.0928 6.49125 19.5475 7.34003 19.9457 8.26158C20.3441 9.18292 20.6647 10.1299 20.9073 11.1026ZM13.1457 11.1026H18.8537C18.5441 9.98792 18.1548 8.96092 17.6857 8.02159C17.2163 7.08225 16.6543 6.19558 15.9997 5.36158C15.345 6.19558 14.783 7.08225 14.3137 8.02159C13.8446 8.96092 13.4552 9.98792 13.1457 11.1026ZM6.56901 11.1026H11.092C11.3347 10.1299 11.6552 9.18292 12.0537 8.26158C12.4519 7.34003 12.9066 6.49125 13.4177 5.71525C11.8826 6.05548 10.5356 6.69014 9.37667 7.61925C8.21756 8.54814 7.28167 9.70925 6.56901 11.1026Z" fill="#342430"/>
</svg>
