<svg width="14" height="14" viewBox="0 0 14 14" fill="none" xmlns="http://www.w3.org/2000/svg">
<path d="M5 5.66667C5 5.2711 5.1173 4.88443 5.33706 4.55553C5.55682 4.22663 5.86918 3.97028 6.23463 3.81891C6.60009 3.66753 7.00222 3.62793 7.39018 3.7051C7.77814 3.78227 8.13451 3.97275 8.41421 4.25245C8.69392 4.53216 8.8844 4.88853 8.96157 5.27649C9.03874 5.66445 8.99913 6.06658 8.84776 6.43203C8.69638 6.79749 8.44004 7.10985 8.11114 7.32961C7.78224 7.54937 7.39556 7.66667 7 7.66667V8.33333M7 10.3333H7.00667M13 7C13 10.3137 10.3137 13 7 13C3.68629 13 1 10.3137 1 7C1 3.68629 3.68629 1 7 1C10.3137 1 13 3.68629 13 7Z" stroke="#818181" stroke-width="1.5" stroke-linecap="round"/>
</svg>
