<svg width="15" height="15" viewBox="0 0 15 15" fill="none" xmlns="http://www.w3.org/2000/svg">
<g clip-path="url(#clip0_1_97)">
<path d="M3.52999 3.72374C3.98811 3.86124 4.48061 4.24312 5.00124 4.64749C5.77936 5.25187 6.66061 5.93749 7.70311 5.93749C8.93124 5.93749 9.97999 5.16124 10.4112 4.06749C10.7519 4.28187 11.0794 4.56124 11.3862 4.94562C11.51 5.09999 11.6912 5.17999 11.875 5.17999C12.0119 5.17999 12.1494 5.13499 12.265 5.04312C12.5344 4.82749 12.5781 4.43437 12.3625 4.16499C11.815 3.48124 11.2181 3.03249 10.6012 2.73812C10.4856 1.20687 9.23811 -0.0062561 7.70311 -0.0062561C5.31249 -0.0062561 3.63811 1.33187 3.02686 2.12249C2.81999 2.38874 2.75811 2.74124 2.86186 3.06374C2.96374 3.38187 3.21311 3.62874 3.52999 3.72374ZM7.70311 1.24374C8.40124 1.24374 8.99874 1.68749 9.24874 2.31437C8.65436 2.20812 8.06249 2.18749 7.49999 2.18749C7.15436 2.18749 6.87499 2.46749 6.87499 2.81249C6.87499 3.15749 7.15436 3.43749 7.49999 3.43749C8.09999 3.43749 8.68874 3.46499 9.25499 3.59624C9.00999 4.23374 8.40811 4.68749 7.70311 4.68749C7.08999 4.68749 6.44749 4.18874 5.76749 3.66062C5.27811 3.27999 4.77374 2.88812 4.22499 2.64999C4.85311 2.01437 6.13436 1.24374 7.70311 1.24374ZM5.68124 9.25249C5.34811 8.51749 4.75061 7.96062 3.99999 7.68312C3.59561 7.53374 3.17374 7.48374 2.75624 7.51624C2.86624 7.21624 3.01686 6.90187 3.21624 6.57687C3.39686 6.28249 3.30436 5.89812 3.00999 5.71749C2.71499 5.53624 2.33061 5.62937 2.15061 5.92374C1.69686 6.66374 1.43374 7.36749 1.34749 8.00812C0.146237 8.81124 -0.340638 10.3987 0.278112 11.7619C1.37249 14.1731 3.96249 14.8362 4.72936 14.9819C4.79374 14.9944 4.85749 15 4.92124 15C5.19749 15 5.46311 14.8869 5.65624 14.6812C5.90311 14.4181 5.99561 14.0487 5.90374 13.6969C5.86311 13.5344 5.84061 13.3719 5.83874 13.2119C5.83374 12.8462 5.87311 12.4681 5.91499 12.0681C6.01061 11.1481 6.10999 10.1962 5.68124 9.25312V9.25249ZM4.67186 11.9381C4.62811 12.3562 4.58249 12.7887 4.58874 13.2269C4.59061 13.3762 4.60249 13.5269 4.62624 13.6781C3.78811 13.4631 2.14436 12.8487 1.41624 11.245C1.15124 10.6606 1.23374 10.0081 1.56749 9.51374C1.76061 9.94437 2.09061 10.4737 2.68374 11.0669C2.80561 11.1887 2.96561 11.25 3.12561 11.25C3.28561 11.25 3.44561 11.1887 3.56749 11.0669C3.81186 10.8225 3.81186 10.4275 3.56749 10.1831C2.95624 9.57187 2.71561 9.08187 2.61999 8.78937C2.73874 8.76312 2.85874 8.74999 2.97936 8.74999C3.17749 8.74999 3.37624 8.78562 3.56686 8.85562C4.00186 9.01624 4.34936 9.34124 4.54374 9.76937C4.83186 10.4044 4.75436 11.1494 4.67186 11.9381ZM14.3162 7.45937C14.1725 7.15374 13.8887 6.93999 13.5575 6.88749C13.2156 6.83499 12.8644 6.95499 12.6225 7.21312C12.275 7.58312 11.7969 7.91562 11.29 8.26687C10.4719 8.83437 9.62686 9.42124 9.13061 10.2981C8.74311 10.9837 8.64749 11.7781 8.86124 12.535C8.95436 12.865 9.11061 13.1637 9.30436 13.435C8.93936 13.5919 8.52686 13.705 8.06061 13.7531C7.71686 13.7887 7.46811 14.0962 7.50374 14.4394C7.53686 14.7606 7.80811 14.9994 8.12436 14.9994C8.98061 14.9887 9.70999 14.66 10.2994 14.3237C10.7506 14.5681 11.2375 14.6856 11.7194 14.6856C12.7625 14.6856 13.7762 14.1425 14.3206 13.18C15.4775 11.1362 14.8612 8.62249 14.3156 7.45874L14.3162 7.45937ZM13.2337 12.565C12.8719 13.2056 12.1512 13.5187 11.4562 13.4106C11.9862 12.8369 12.3487 12.1831 12.5375 11.5587C12.6375 11.2287 12.4506 10.88 12.12 10.78C11.7881 10.68 11.4412 10.8669 11.3412 11.1975C11.1806 11.7287 10.8525 12.2919 10.3481 12.7575C10.2206 12.5906 10.1225 12.4019 10.0637 12.1944C9.94186 11.7612 9.99624 11.3062 10.2181 10.9137C10.5737 10.285 11.2681 9.80374 12.0025 9.29374C12.4525 8.98124 12.915 8.65999 13.3112 8.29062C13.6919 9.28624 14.0494 11.1231 13.2331 12.5656L13.2337 12.565Z" fill="#67DF90"/>
</g>
<defs>
<clipPath id="clip0_1_97">
<rect width="15" height="15" fill="white"/>
</clipPath>
</defs>
</svg>
